<svg aria-hidden="true" style="position: absolute; width: 0; height: 0; overflow: hidden;" version="1.1" xmlns="http://www.w3.org/2000/svg" xmlns:xlink="http://www.w3.org/1999/xlink">
<defs>
<symbol id="icon-Group-53" viewBox="0 0 52 32">
<path fill="red" style="fill: var(green, blue)" d="M41.413 14.638c0 0 0 0 0 0l-0.747 2.15c-0.009 0.025-0.011 0.051-0.005 0.077s0.017 0.049 0.034 0.069l1.463 1.655c0.133 0.155 0.39 0.065 0.397-0.139l0.202-5.978c0.001-0.041-0.009-0.082-0.029-0.118s-0.051-0.065-0.088-0.085c-0.037-0.020-0.078-0.028-0.12-0.026s-0.082 0.017-0.116 0.041l-4.95 3.456c-0.169 0.118-0.103 0.379 0.101 0.403l2.207 0.294c0.026 0.004 0.053 0 0.077-0.010s0.046-0.026 0.062-0.047l1.409-1.798c0.009-0.011 0.021-0.019 0.035-0.021s0.028-0.001 0.041 0.006c0.013 0.007 0.022 0.017 0.027 0.030s0.006 0.027 0.001 0.041c0 0 0 0-0 0z"></path>
<path fill="red" stroke="red" style="stroke: var(red, red)" stroke-linejoin="round" stroke-linecap="butt" stroke-miterlimit="4" stroke-width="0.8348" d="M5.918 10.431c4.133 3.461 14.047 15.084 18.639 7.82 5.74-9.080-9.703-9.547-9.071-1.713s14.857 13.474 24.645 0.677"></path>
</symbol>
<symbol id="icon-arrow-narrow-right" viewBox="0 0 34 32">
<path fill="none" stroke="#3e4462" style="stroke: var(--color2, #3e4462)" stroke-linejoin="round" stroke-linecap="round" stroke-miterlimit="4" stroke-width="2.6667" d="M6.222 16h21.333M27.556 16l-8-8M27.556 16l-8 8"></path>
</symbol>
<symbol id="icon-yb" viewBox="0 0 43 32">
<path fill="#8baa36" style="fill: var(--color1, #8baa36)" d="M40.273 6.595c0-3.5-2.621-6.315-5.859-6.315-4.386-0.201-8.86-0.279-13.432-0.279h-1.425c-4.561 0-9.042 0.078-13.428 0.28-3.23 0-5.851 2.831-5.851 6.331-0.198 2.768-0.282 5.537-0.277 8.306-0.008 2.769 0.082 5.54 0.269 8.314 0 3.5 2.621 6.339 5.851 6.339 4.608 0.21 9.335 0.303 14.141 0.296 4.814 0.015 9.528-0.083 14.141-0.296 3.238 0 5.859-2.839 5.859-6.339 0.19-2.776 0.277-5.545 0.269-8.322 0.018-2.769-0.068-5.54-0.258-8.314zM16.39 22.546v-15.283l11.481 7.638-11.481 7.645z"></path>
</symbol>
<symbol id="icon-twitter" viewBox="0 0 38 32">
<path fill="#8baa36" style="fill: var(--color1, #8baa36)" d="M33.882 4.064c-1.271 0.537-2.616 0.891-3.992 1.050 1.446-0.823 2.534-2.131 3.059-3.678-1.367 0.777-2.861 1.323-4.416 1.613-0.655-0.667-1.443-1.198-2.315-1.56s-1.812-0.548-2.761-0.546c-3.841 0-6.95 2.978-6.95 6.65-0.003 0.511 0.057 1.020 0.179 1.517-2.755-0.126-5.452-0.809-7.919-2.006s-4.651-2.882-6.41-4.946c-0.617 1.012-0.944 2.166-0.945 3.342 0 2.306 1.237 4.344 3.106 5.538-1.107-0.026-2.191-0.31-3.161-0.83v0.082c0 3.225 2.4 5.909 5.576 6.52-0.597 0.155-1.213 0.233-1.831 0.233-0.439 0.001-0.876-0.041-1.307-0.124 0.883 2.642 3.453 4.564 6.498 4.619-2.474 1.854-5.511 2.856-8.634 2.848-0.554-0.001-1.108-0.033-1.659-0.096 3.177 1.973 6.871 3.016 10.64 3.006 12.802 0 19.796-10.136 19.796-18.927 0-0.288-0.008-0.576-0.022-0.858 1.358-0.939 2.532-2.105 3.468-3.445z"></path>
</symbol>
<symbol id="icon-insta" viewBox="0 0 32 32">
<path fill="#8baa36" style="fill: var(--color1, #8baa36)" d="M22.666 2.666c1.767 0.005 3.459 0.709 4.709 1.959s1.953 2.942 1.959 4.709v13.333c-0.005 1.767-0.709 3.459-1.959 4.709s-2.942 1.953-4.709 1.959h-13.333c-1.767-0.005-3.459-0.709-4.709-1.959s-1.953-2.942-1.959-4.709v-13.333c0.005-1.767 0.709-3.459 1.959-4.709s2.942-1.953 4.709-1.959h13.333zM22.666 0h-13.333c-5.134 0-9.334 4.2-9.334 9.334v13.333c0 5.134 4.2 9.334 9.334 9.334h13.333c5.134 0 9.334-4.2 9.334-9.334v-13.333c0-5.134-4.2-9.334-9.334-9.334z"></path>
<path fill="#8baa36" style="fill: var(--color1, #8baa36)" d="M24.666 9.337c-0.395 0-0.782-0.117-1.111-0.337s-0.585-0.532-0.737-0.898-0.191-0.768-0.114-1.156c0.077-0.388 0.267-0.744 0.547-1.024s0.636-0.47 1.024-0.547c0.388-0.077 0.79-0.038 1.155 0.114s0.678 0.408 0.898 0.737c0.22 0.329 0.337 0.716 0.337 1.111 0.001 0.263-0.051 0.523-0.151 0.766s-0.248 0.464-0.433 0.649c-0.186 0.186-0.407 0.333-0.649 0.433s-0.503 0.152-0.766 0.151zM16 10.67c1.055 0 2.086 0.313 2.963 0.899s1.561 1.419 1.964 2.394c0.404 0.975 0.509 2.047 0.303 3.082s-0.714 1.985-1.46 2.731c-0.746 0.746-1.696 1.254-2.731 1.46s-2.107 0.1-3.082-0.304c-0.975-0.404-1.808-1.087-2.394-1.964s-0.899-1.908-0.899-2.963c0.002-1.414 0.564-2.77 1.564-3.77s2.356-1.562 3.77-1.564zM16 8.003c-1.582 0-3.129 0.469-4.445 1.348s-2.341 2.128-2.947 3.59c-0.605 1.462-0.764 3.070-0.455 4.622s1.071 2.977 2.189 4.096c1.119 1.119 2.544 1.881 4.096 2.19s3.16 0.15 4.622-0.455c1.462-0.605 2.711-1.631 3.59-2.946s1.348-2.862 1.348-4.445c0-2.122-0.843-4.157-2.343-5.657s-3.535-2.343-5.657-2.343z"></path>
</symbol>
<symbol id="icon-fb" viewBox="0 0 30 32">
<path fill="#8baa36" style="fill: var(--color1, #8baa36)" d="M27.429 14.559c0-7.619-6.141-13.797-13.714-13.797s-13.714 6.178-13.714 13.797c0 6.886 5.014 12.594 11.571 13.63v-9.641h-3.483v-3.99h3.483v-3.040c0-3.457 2.048-5.369 5.18-5.369 1.5 0 3.070 0.27 3.070 0.27v3.396h-1.73c-1.703 0-2.235 1.063-2.235 2.156v2.587h3.803l-0.607 3.99h-3.195v9.642c6.557-1.035 11.572-6.743 11.572-13.631z"></path>
</symbol>
<symbol id="icon-emai" viewBox="0 0 41 32">
<path fill="none" stroke="#fafafa" style="stroke: var(--color3, #fafafa)" stroke-linejoin="round" stroke-linecap="round" stroke-miterlimit="4" stroke-width="2.7429" d="M5.943 2.286h29.257c0.969 0.003 1.898 0.365 2.583 1.007s1.071 1.513 1.074 2.421v20.571c-0.003 0.909-0.389 1.779-1.074 2.421s-1.614 1.005-2.583 1.007h-29.257c-0.969-0.003-1.898-0.365-2.583-1.007s-1.071-1.513-1.074-2.421v-20.571c0.003-0.908 0.389-1.779 1.074-2.421s1.614-1.004 2.583-1.007v0z"></path>
<path fill="none" stroke="#fafafa" style="stroke: var(--color3, #fafafa)" stroke-linejoin="round" stroke-linecap="round" stroke-miterlimit="4" stroke-width="2.7429" d="M38.857 5.713l-18.286 12-18.286-12"></path>
</symbol>
<symbol id="icon-plus" viewBox="0 0 32 32">
<path fill="none" stroke="#fafafa" style="stroke: var(--color3, #fafafa)" stroke-linejoin="round" stroke-linecap="round" stroke-miterlimit="4" stroke-width="3.5556" d="M16 6.667v18.667"></path>
<path fill="none" stroke="#fafafa" style="stroke: var(--color3, #fafafa)" stroke-linejoin="round" stroke-linecap="round" stroke-miterlimit="4" stroke-width="3.5556" d="M6.667 16h18.667"></path>
</symbol>
<symbol id="icon-Icon" viewBox="0 0 30 32">
<path stroke-linejoin="round" stroke-linecap="round" stroke-miterlimit="4" stroke-width="3" d="M27 29.071c0-2.093 0-3.14-0.258-3.992-0.582-1.918-2.082-3.418-4-4-0.852-0.258-1.898-0.258-3.992-0.258h-7.5c-2.093 0-3.14 0-3.992 0.258-1.918 0.582-3.418 2.082-4 4-0.258 0.852-0.258 1.898-0.258 3.992M21.75 8.821c0 3.728-3.022 6.75-6.75 6.75s-6.75-3.022-6.75-6.75c0-3.728 3.022-6.75 6.75-6.75s6.75 3.022 6.75 6.75z"></path>
</symbol>
<symbol id="icon-edit-01" viewBox="0 0 30 32">
<path stroke-linejoin="round" stroke-linecap="round" stroke-miterlimit="4" stroke-width="2.7733" d="M3.47 24.602c0.098-0.882 0.147-1.323 0.28-1.735 0.118-0.366 0.286-0.714 0.497-1.035 0.239-0.362 0.552-0.676 1.18-1.303l15.729-15.729c1.375-1.375 3.603-1.375 4.978 0v0c1.375 1.375 1.375 3.603 0 4.978l-15.729 15.729c-0.628 0.628-0.941 0.941-1.303 1.18-0.321 0.212-0.669 0.379-1.035 0.497-0.412 0.134-0.853 0.182-1.735 0.281l-3.22 0.358 0.358-3.22z"></path>
</symbol>
<symbol id="icon-arrow-right" viewBox="0 0 30 32">
<path fill="none" stroke="#fafafa" style="stroke: var(--color3, #fafafa)" stroke-linejoin="round" stroke-linecap="round" stroke-miterlimit="4" stroke-width="2.1895" d="M4.632 16h16.842"></path>
<path fill="none" stroke="#fafafa" style="stroke: var(--color3, #fafafa)" stroke-linejoin="round" stroke-linecap="round" stroke-miterlimit="4" stroke-width="2.1895" d="M15.158 7.158l8.842 8.842-8.842 8.842"></path>
</symbol>
<symbol id="icon-search" viewBox="0 0 32 32">
<path stroke-linejoin="round" stroke-linecap="round" stroke-miterlimit="4" stroke-width="2.6667" d="M14.667 25.333c5.891 0 10.667-4.776 10.667-10.667s-4.776-10.667-10.667-10.667c-5.891 0-10.667 4.776-10.667 10.667s4.776 10.667 10.667 10.667z"></path>
<path stroke-linejoin="round" stroke-linecap="round" stroke-miterlimit="4" stroke-width="2.6667" d="M28.001 28l-5.8-5.8"></path>
</symbol>
<symbol id="icon-lock-02" viewBox="0 0 30 32">
<path fill="none" opacity="0.8" stroke="#fafafa" style="stroke: var(--color3, #fafafa)" stroke-linejoin="round" stroke-linecap="round" stroke-miterlimit="4" stroke-width="1.6842" d="M21.474 14.737v-3.789c0-3.488-2.828-6.316-6.316-6.316s-6.316 2.828-6.316 6.316v3.789M9.853 27.368h10.611c2.122 0 3.183 0 3.994-0.413 0.713-0.363 1.293-0.943 1.656-1.656 0.413-0.811 0.413-1.872 0.413-3.994v-0.505c0-2.122 0-3.183-0.413-3.994-0.363-0.713-0.943-1.293-1.656-1.656-0.811-0.413-1.872-0.413-3.994-0.413h-10.611c-2.122 0-3.183 0-3.994 0.413-0.713 0.363-1.293 0.943-1.656 1.656-0.413 0.811-0.413 1.872-0.413 3.994v0.505c0 2.122 0 3.183 0.413 3.994 0.363 0.713 0.943 1.293 1.656 1.656 0.811 0.413 1.872 0.413 3.994 0.413z"></path>
</symbol>
<symbol id="icon-mail-01" viewBox="0 0 30 32">
<path fill="none" opacity="0.8" stroke="#fafafa" style="stroke: var(--color3, #fafafa)" stroke-linejoin="round" stroke-linecap="round" stroke-miterlimit="4" stroke-width="1.6842" d="M2.526 9.684l10.314 7.22c0.835 0.585 1.253 0.877 1.707 0.99 0.401 0.1 0.821 0.1 1.222 0 0.454-0.113 0.872-0.406 1.707-0.99l10.314-7.22M8.589 26.105h13.137c2.122 0 3.183 0 3.994-0.413 0.713-0.363 1.293-0.943 1.656-1.656 0.413-0.811 0.413-1.872 0.413-3.994v-8.084c0-2.122 0-3.183-0.413-3.994-0.363-0.713-0.943-1.293-1.656-1.656-0.811-0.413-1.872-0.413-3.994-0.413h-13.137c-2.122 0-3.183 0-3.994 0.413-0.713 0.363-1.293 0.943-1.656 1.656-0.413 0.811-0.413 1.872-0.413 3.994v8.084c0 2.122 0 3.183 0.413 3.994 0.363 0.713 0.943 1.293 1.656 1.656 0.811 0.413 1.872 0.413 3.994 0.413z"></path>
</symbol>
<symbol id="icon-user-01" viewBox="0 0 30 32">
<path fill="none" opacity="0.8" stroke="#fafafa" style="stroke: var(--color3, #fafafa)" stroke-linejoin="round" stroke-linecap="round" stroke-miterlimit="4" stroke-width="1.6842" d="M25.263 27.368c0-1.763 0-2.644-0.218-3.362-0.49-1.615-1.753-2.878-3.368-3.368-0.717-0.218-1.599-0.218-3.362-0.218h-6.316c-1.763 0-2.644 0-3.361 0.218-1.615 0.49-2.878 1.753-3.368 3.368-0.218 0.717-0.218 1.599-0.218 3.362M20.842 10.316c0 3.139-2.545 5.684-5.684 5.684s-5.684-2.545-5.684-5.684 2.545-5.684 5.684-5.684c3.139 0 5.684 2.545 5.684 5.684z"></path>
</symbol>
<symbol id="icon-logoTablet" viewBox="0 0 32 32">
<path fill="#8baa36" style="fill: var(--color1, #8baa36)" d="M8.727 0h14.545c4.82 0 8.727 3.907 8.727 8.727v14.545c0 4.82-3.907 8.727-8.727 8.727h-14.545c-4.82 0-8.727-3.907-8.727-8.727v-14.545c0-4.82 3.907-8.727 8.727-8.727z"></path>
<path fill="none" stroke="#fafafa" style="stroke: var(--color3, #fafafa)" stroke-linejoin="round" stroke-linecap="round" stroke-miterlimit="4" stroke-width="1.4545" d="M7.273 7.347v3.966c0 1.132 0.494 2.135 1.26 2.784 0.375 0.317 0.622 0.746 0.622 1.221v6.62c0 0.736 0.633 1.333 1.412 1.333s1.412-0.597 1.412-1.333v-6.62c0-0.476 0.248-0.904 0.622-1.221 0.766-0.649 1.26-1.652 1.26-2.784v0"></path>
<path fill="none" stroke="#fafafa" style="stroke: var(--color3, #fafafa)" stroke-linejoin="round" stroke-linecap="round" stroke-miterlimit="4" stroke-width="1.4545" d="M10.567 11.717v-4.444"></path>
<path fill="none" stroke="#fafafa" style="stroke: var(--color3, #fafafa)" stroke-linejoin="round" stroke-linecap="round" stroke-miterlimit="4" stroke-width="1.4545" d="M23.273 8.208c0-0.491-0.422-0.889-0.941-0.889h-0.941c-1.559 0-2.823 1.194-2.823 2.667v5.333c0 1.159 0.788 2.136 1.882 2.503v4.117c0 0.736 0.633 1.333 1.412 1.333s1.412-0.597 1.412-1.333v-13.732z"></path>
</symbol>
<symbol id="icon-clock" viewBox="0 0 32 32">
<path stroke-linejoin="round" stroke-linecap="round" stroke-miterlimit="4" stroke-width="2.9714" d="M15.998 29.334c7.364 0 13.333-5.97 13.333-13.333s-5.97-13.333-13.333-13.333-13.333 5.97-13.333 13.333c0 7.364 5.97 13.333 13.333 13.333z"></path>
<path stroke-linejoin="round" stroke-linecap="round" stroke-miterlimit="4" stroke-width="2.9714" d="M16 8v8l5.333 2.667"></path>
</symbol>
<symbol id="icon-add" viewBox="0 0 32 32">
<path fill="none" stroke="#fafafa" style="stroke: var(--color1, #fafafa)" stroke-linejoin="round" stroke-linecap="round" stroke-miterlimit="4" stroke-width="0.5" d="M28.191 11.429v-4.581c0-0.807-0.32-1.58-0.889-2.152s-1.342-0.893-2.149-0.896l-4.581-0.014M28.191 20.571v4.571c0 0.808-0.321 1.583-0.893 2.155s-1.347 0.893-2.155 0.893h-4.571M11.429 3.787l-4.581 0.015c-0.807 0.002-1.58 0.325-2.149 0.896s-0.889 1.345-0.889 2.152v4.579M11.429 28.19h-4.571c-0.808 0-1.583-0.321-2.155-0.893s-0.893-1.347-0.893-2.155v-4.571"></path>
<path fill="#fafafa" style="fill: var(--color1, #fafafa)" d="M16 18.75c0.625 0 1.156-0.219 1.594-0.656s0.656-0.969 0.656-1.594-0.219-1.156-0.656-1.594c-0.438-0.437-0.969-0.656-1.594-0.656s-1.156 0.219-1.594 0.656c-0.437 0.438-0.656 0.969-0.656 1.594s0.219 1.156 0.656 1.594c0.438 0.437 0.969 0.656 1.594 0.656zM12 20.5c-0.275 0-0.51-0.098-0.706-0.294s-0.294-0.431-0.294-0.706v-6c0-0.275 0.098-0.51 0.294-0.706s0.431-0.294 0.706-0.294h1.575l0.925-1h3l0.925 1h1.575c0.275 0 0.511 0.098 0.706 0.294s0.294 0.431 0.294 0.706v6c0 0.275-0.098 0.511-0.294 0.706s-0.431 0.294-0.706 0.294h-8z"></path>
</symbol>
<symbol id="icon-arrow" viewBox="0 0 55 32">
<path fill="none" stroke="#8baa36" style="stroke: var(--color1, #8baa36)" stroke-linejoin="round" stroke-linecap="round" stroke-miterlimit="4" stroke-width="9.1429" d="M50.286 4.571l-22.857 22.857-22.857-22.857"></path>
</symbol>
<symbol id="icon-Minus" viewBox="0 0 32 32">
<path stroke-linejoin="round" stroke-linecap="round" stroke-miterlimit="4" stroke-width="3.4286" d="M5 16h22"></path>
</symbol>
<symbol id="icon-Plus" viewBox="0 0 32 32">
<path fill="none" stroke="#8baa36" style="stroke: var(--color1, #8baa36)" stroke-linejoin="round" stroke-linecap="round" stroke-miterlimit="4" stroke-width="3.4286" d="M5 16h22"></path>
<path fill="none" stroke="#8baa36" style="stroke: var(--color1, #8baa36)" stroke-linejoin="round" stroke-linecap="round" stroke-miterlimit="4" stroke-width="3.4286" d="M16 5v22"></path>
</symbol>
<symbol id="icon-X" viewBox="0 0 30 32">
<path stroke-linejoin="round" stroke-linecap="round" stroke-miterlimit="4" stroke-width="2.5263" d="M23.684 7.474l-17.053 17.053"></path>
<path stroke-linejoin="round" stroke-linecap="round" stroke-miterlimit="4" stroke-width="2.5263" d="M23.684 24.526l-17.053-17.053"></path>
</symbol>
<symbol id="icon-trash-01" viewBox="0 0 32 32">
<path fill="none"   stroke-linejoin="round" stroke-linecap="round" stroke-miterlimit="4" stroke-width="2.7429" d="M21.333 8v-1.067c0-1.493 0-2.24-0.291-2.811-0.256-0.502-0.664-0.91-1.165-1.165-0.57-0.291-1.317-0.291-2.811-0.291h-2.133c-1.493 0-2.24 0-2.811 0.291-0.502 0.256-0.91 0.664-1.165 1.165-0.291 0.57-0.291 1.317-0.291 2.811v1.067M13.333 15.333v6.667M18.667 15.333v6.667M4 8h24M25.333 8v14.933c0 2.24 0 3.36-0.436 4.216-0.384 0.753-0.995 1.365-1.748 1.748-0.856 0.436-1.976 0.436-4.216 0.436h-5.867c-2.24 0-3.36 0-4.216-0.436-0.753-0.384-1.365-0.995-1.748-1.748-0.436-0.856-0.436-1.976-0.436-4.216v-14.933"></path>
</symbol>
</defs>
</svg>
